<svg width="77" height="46" viewBox="0 0 77 46" fill="none" xmlns="http://www.w3.org/2000/svg">
<g clip-path="url(#clip0_102_7829)">
<path fill-rule="evenodd" clip-rule="evenodd" d="M39.9277 1.12667V1.25888L44.8336 2.29306V0.0888672L39.9277 1.12667Z" fill="#80BA27"/>
<path fill-rule="evenodd" clip-rule="evenodd" d="M36.3516 2.35429V3.77424L34.1352 3.85031C32.1912 3.85031 31.3945 4.7722 31.3945 6.69566V14.1993C31.3945 14.96 31.5772 15.8294 31.9427 16.2568C32.2423 16.619 33.081 17.041 33.7515 17.041L34.413 17.0519L33.62 18.3994H43.852L42.9494 17.041C45.268 17.0374 46.0117 16.3003 46.0117 13.9928V12.3157L42.8818 11.7361V14.5815H34.4605L34.5208 6.17404H42.8818V8.69337L46.0117 8.23877V6.5562C46.0117 4.74503 45.1091 4.04592 43.4646 3.83945L41.0492 3.77968V2.35429H39.9364V0.090332H37.4515V2.35791L36.3516 2.35429Z" fill="#80BA27" stroke="#80BA27"/>
<path fill-rule="evenodd" clip-rule="evenodd" d="M7.96289 45.8821V41.3107H11.1147C11.5051 41.2912 11.89 41.4085 12.2019 41.6421C12.3301 41.7552 12.4313 41.8951 12.4983 42.0517C12.5653 42.2083 12.5964 42.3777 12.5892 42.5477C12.5892 42.9389 12.5709 43.4533 12.3133 43.6906C11.9964 43.9389 11.6006 44.0673 11.1969 44.0528H8.63893L8.62614 45.8784L7.96289 45.8821ZM8.64076 43.4334H11.0763C11.316 43.4522 11.5549 43.3882 11.7524 43.2523C11.8957 43.102 11.9755 42.903 11.9755 42.6962C11.9755 42.4894 11.8957 42.2905 11.7524 42.1402C11.569 41.9948 11.3383 41.9208 11.1037 41.9319H8.64076V43.4334Z" fill="black"/>
<path fill-rule="evenodd" clip-rule="evenodd" d="M15.8633 45.8947V41.2998H20.0145V41.979L16.5704 41.9844L16.5503 43.216L19.0005 43.2052V43.8246H16.5503L16.5704 45.2065H20.0145V45.8947H15.8633Z" fill="black"/>
<path fill-rule="evenodd" clip-rule="evenodd" d="M31.9258 45.8947V41.2871H36.1209V41.9735H32.5744V43.2015H35.0356V43.8155H32.5744V45.8947H31.9258Z" fill="black"/>
<path fill-rule="evenodd" clip-rule="evenodd" d="M39.993 41.2295V44.1382C39.993 44.6001 40.0953 44.9188 40.3182 45.071C40.806 45.4187 42.5985 45.4332 43.0717 45.0891C43.2836 44.9261 43.4079 44.6182 43.4079 44.1509V41.244H44.0017V44.2958C44.0017 45.5636 43.1119 45.9258 41.6666 45.9258C40.2213 45.9258 39.3242 45.3427 39.3242 44.2958V41.2476L39.993 41.2295Z" fill="black"/>
<path fill-rule="evenodd" clip-rule="evenodd" d="M47.8418 45.8931V41.271H48.6074L50.6775 44.0566L52.7659 41.271H53.5242V45.8822H52.85V42.1784L50.6775 45.0527L48.5142 42.1784V45.8931H47.8418Z" fill="black"/>
<path fill-rule="evenodd" clip-rule="evenodd" d="M66.0115 45.7954C66.4357 45.9323 66.8791 46.0013 67.3252 46C67.8666 46.0232 68.4017 45.8769 68.8545 45.5816C69.0358 45.4632 69.1844 45.3018 69.2868 45.112C69.3892 44.9222 69.4422 44.7101 69.441 44.4949C69.4447 44.3172 69.408 44.141 69.3336 43.9792C69.2593 43.8175 69.1493 43.6743 69.0117 43.5604C68.6868 43.2889 68.2827 43.1277 67.8587 43.1003C67.6906 43.0822 67.4568 43.0659 67.1662 43.046C66.5414 43.0134 66.1248 42.9337 65.9366 42.7888C65.8685 42.7443 65.8146 42.6815 65.7813 42.6077C65.7446 42.5502 65.725 42.4837 65.7246 42.4157C65.7316 42.3163 65.765 42.2205 65.8215 42.1381C65.878 42.0557 65.9555 41.9896 66.0462 41.9466C66.3142 41.8083 66.614 41.7415 66.9159 41.7528C67.246 41.7539 67.5735 41.8109 67.8843 41.9213C68.2095 42.0405 68.514 42.2092 68.7869 42.4212L68.8216 42.4465L68.8362 42.4157L69.1871 41.9412L69.2035 41.9176L69.1724 41.8959C68.8401 41.6498 68.4699 41.4583 68.0762 41.329C67.6961 41.2073 67.2989 41.1462 66.8995 41.1479C66.426 41.1287 65.9582 41.2552 65.5602 41.5101C65.4015 41.6089 65.271 41.7463 65.1811 41.9093C65.0912 42.0722 65.0449 42.2553 65.0468 42.4411C65.0445 42.6444 65.1036 42.8437 65.2167 43.0134C65.3503 43.1877 65.5281 43.3239 65.7319 43.4082C66.0133 43.5368 66.5505 43.6238 67.3252 43.6853C67.4426 43.6861 67.5598 43.6946 67.676 43.7107C67.9557 43.7171 68.2282 43.7999 68.4635 43.9498C68.5486 44.0085 68.6179 44.0868 68.6657 44.178C68.7134 44.2692 68.7381 44.3705 68.7376 44.4732C68.7383 44.6065 68.7032 44.7375 68.6357 44.8528C68.5683 44.968 68.471 45.0633 68.3539 45.1288C68.044 45.3187 67.6836 45.4115 67.3197 45.3951C66.9588 45.3906 66.6014 45.3238 66.2636 45.1977C65.8949 45.0635 65.5505 44.8708 65.2441 44.6272L65.2094 44.6036L65.182 44.6435L64.8421 45.1288L64.8184 45.1687L64.8512 45.1886C65.2012 45.4531 65.5933 45.6576 66.0115 45.7935" fill="black"/>
<path fill-rule="evenodd" clip-rule="evenodd" d="M23.7207 45.8768V41.3054H26.8744C27.2626 41.2853 27.6452 41.4042 27.9524 41.6405C28.0824 41.7499 28.1852 41.8875 28.253 42.0427C28.3208 42.1978 28.3517 42.3663 28.3434 42.5352C28.3434 42.9373 28.3214 43.4408 28.0711 43.6871C27.842 43.8747 27.5638 43.994 27.269 44.0312L28.464 45.8732H27.6673L26.4614 44.0511H24.3876V45.8768H23.7207ZM24.3949 43.4299H26.8323C27.071 43.448 27.3082 43.3791 27.4992 43.2361C27.5783 43.17 27.6405 43.0864 27.6808 42.9919C27.7211 42.8975 27.7384 42.795 27.7313 42.6928C27.7384 42.5881 27.7213 42.4832 27.681 42.3861C27.6408 42.2891 27.5786 42.2025 27.4992 42.1331C27.3212 41.9879 27.0933 41.9165 26.8634 41.9339H24.3876L24.3949 43.4299Z" fill="black"/>
<path fill-rule="evenodd" clip-rule="evenodd" d="M57.3965 45.8749V41.2764H61.5605V41.961L58.1072 41.9628L58.0963 43.1926H60.5392V43.8011H58.0963L58.1072 45.1903L61.5605 45.1867V45.8749H57.3965Z" fill="black"/>
<path fill-rule="evenodd" clip-rule="evenodd" d="M19.4356 29.2592C19.4356 27.5857 21.0964 25.9032 22.8249 25.8995H23.4845C24.9225 25.8995 26.5468 27.7342 26.5468 29.2592V29.5038C26.5468 31.5703 25.0851 33.1859 22.9893 33.1895H22.7427C21.069 33.1895 19.4356 31.2841 19.4356 29.5925V29.2592ZM14.4785 29.6686C14.4785 34.3776 18.3795 38.1811 23.1574 38.1811C27.6193 38.1811 31.502 34.2852 31.502 29.9076V28.4352C31.502 27.7632 30.8424 25.9213 30.5629 25.4359C29.9069 24.3256 29.7187 24.101 28.8362 23.2226C27.6102 22.0164 25.805 20.8301 23.4005 20.8301H22.4065C18.5932 20.8301 14.4803 24.9831 14.4803 28.7793L14.4785 29.6686Z" fill="black"/>
<path fill-rule="evenodd" clip-rule="evenodd" d="M40.1483 27.5299H33.4682V31.5416L39.0757 31.6177C39.9126 31.8133 39.9583 32.0523 40.1519 32.8493L40.2396 37.6742L45.1346 37.7177V31.7282C45.1766 31.1848 44.9518 30.924 44.7088 30.6415C44.4658 30.3589 43.5303 29.9351 42.9639 29.8898H43.4536C45.0633 29.7522 46.5086 27.941 46.5086 26.2168V25.5611C46.5086 23.2338 44.4695 21.3013 42.0485 21.3013H33.4609L33.4719 25.4017H40.0606C40.7037 25.4017 41.0637 25.7459 41.0637 26.3852V26.541C41.0637 27.0481 40.669 27.5281 40.1501 27.5281" fill="black"/>
<path fill-rule="evenodd" clip-rule="evenodd" d="M8.21426 21.4081C6.21536 21.4081 3.9424 22.7484 2.90275 23.7627C1.50224 25.1964 0.713035 27.11 0.699219 29.1056L0.699219 30.0112C0.699219 32.2715 1.65299 33.9632 2.64695 35.2889C3.48196 36.3756 5.53384 37.7014 7.39752 37.7014H12.5135V33.6879H10.9495C9.63395 33.5067 8.06078 33.3256 7.09239 32.3603C6.5205 31.797 6.0765 30.7701 6.0765 29.6761V29.3411C6.0765 25.7187 9.97562 25.5938 12.6012 25.4887L12.5903 21.314L8.21426 21.4081Z" fill="black"/>
<path fill-rule="evenodd" clip-rule="evenodd" d="M64.5889 37.7502L59.1039 21.3066L53.7814 21.3211L58.4899 33.8979L54.1779 33.9069L55.8461 27.4537L51.6107 27.4465L48.4297 37.7484L64.5889 37.7502Z" fill="black"/>
<path fill-rule="evenodd" clip-rule="evenodd" d="M66.5521 37.7503L76.7001 37.7485V33.6535L71.5055 33.6589V25.4706V21.2959H66.543L66.5521 37.7503Z" fill="black"/>
<path d="M75.1265 20.2597C75.0258 20.1087 74.9088 19.969 74.7775 19.8432C74.7354 19.8081 74.6908 19.776 74.6441 19.7472C74.8504 19.7126 75.0414 19.6173 75.1923 19.4737C75.3425 19.3171 75.4245 19.1083 75.4207 18.8923C75.4228 18.7211 75.3759 18.5528 75.2854 18.4069C75.2033 18.265 75.0742 18.1556 74.92 18.0972C74.7124 18.0311 74.4947 18.0016 74.2769 18.0103H72.8535V21.1635H73.3523V19.8069H73.7854C73.8574 19.8052 73.9295 19.8088 74.001 19.8178C74.0622 19.834 74.1207 19.859 74.1745 19.8921C74.2485 19.9487 74.3148 20.0144 74.3719 20.0877C74.445 20.1855 74.5418 20.3267 74.6587 20.506L75.0826 21.1635H75.7075L75.1265 20.2597ZM74.8268 19.1386C74.7751 19.217 74.6987 19.2763 74.6094 19.307C74.4726 19.3506 74.329 19.3696 74.1855 19.3632H73.3523V18.4395H74.2878C74.4546 18.4279 74.6203 18.4733 74.7574 18.5681C74.8049 18.6077 74.8427 18.6574 74.868 18.7136C74.8933 18.7697 74.9055 18.8308 74.9036 18.8923C74.9031 18.9801 74.8764 19.0658 74.8268 19.1386Z" fill="black"/>
<path d="M74.2258 22.0854C73.7354 22.0847 73.2562 21.9399 72.8489 21.6692C72.4416 21.3986 72.1243 21.0142 71.9373 20.5649C71.7503 20.1155 71.702 19.6213 71.7984 19.1446C71.8947 18.668 72.1315 18.2304 72.4788 17.8872C72.8261 17.544 73.2682 17.3106 73.7493 17.2164C74.2304 17.1223 74.7289 17.1717 75.1816 17.3584C75.6344 17.5451 76.0212 17.8607 76.293 18.2652C76.5649 18.6698 76.7096 19.1452 76.7089 19.6313C76.7074 20.2814 76.4464 20.9045 75.9828 21.3644C75.5192 21.8243 74.8908 22.0835 74.2349 22.0854H74.2258ZM74.2258 17.4525C73.7921 17.4525 73.3682 17.5799 73.0077 17.8187C72.6471 18.0576 72.3661 18.397 72.2001 18.7941C72.0342 19.1913 71.9907 19.6283 72.0753 20.0499C72.1599 20.4715 72.3688 20.8587 72.6754 21.1627C72.982 21.4666 73.3727 21.6736 73.798 21.7575C74.2233 21.8414 74.6642 21.7983 75.0648 21.6338C75.4655 21.4693 75.8079 21.1908 76.0488 20.8333C76.2898 20.4759 76.4184 20.0557 76.4184 19.6259C76.4184 19.0494 76.1874 18.4966 75.7762 18.089C75.365 17.6814 74.8073 17.4525 74.2258 17.4525Z" fill="black"/>
</g>
<defs>
<clipPath id="clip0_102_7829">
<rect width="76" height="46" fill="white" transform="translate(0.699219)"/>
</clipPath>
</defs>
</svg>
