<svg width="91" height="31" viewBox="0 0 91 31" fill="none" xmlns="http://www.w3.org/2000/svg">
<rect width="91" height="31" rx="14" fill="#5AFEAE"/>
<g clip-path="url(#clip0_102_7781)">
<path d="M69.6953 10.5819L65.9059 24.9547V25H68.8736L72.6629 10.6272H69.6953V10.5819ZM22.8529 18.7431C22.4136 18.9601 21.9282 19.0689 21.4376 19.0605C20.3875 19.0605 19.794 18.8791 19.7027 18.0176V13.3476V10.6725L17.0547 10.9899C17.8149 10.8763 18.5106 10.5005 19.0198 9.92846C19.5291 9.35645 19.8193 8.62469 19.8397 7.86146V7H16.8721V11.0353L16.6895 11.0806V18.5164C16.7808 20.602 18.1961 21.8715 20.4332 21.8715C21.2511 21.8729 22.06 21.703 22.8073 21.3728L22.8529 18.7431Z" fill="#292929"/>
<path d="M23.3093 10.0377L15 11.3072V13.3928L23.3093 12.1233V10.0377ZM23.3093 13.1208L15 14.3903V16.3853L23.3093 15.1158V13.1208ZM32.623 14.0729C32.486 11.7606 31.025 10.3551 28.651 10.3551C28.0195 10.3366 27.3925 10.4666 26.8213 10.7345C26.25 11.0024 25.7506 11.4006 25.3638 11.8966C24.5876 12.8941 24.1767 14.345 24.1767 16.1132C24.1767 17.8815 24.5876 19.3324 25.3638 20.3299C25.7534 20.8198 26.2545 21.2109 26.826 21.471C27.3974 21.7311 28.0229 21.8528 28.651 21.8261C31.025 21.8261 32.486 20.4659 32.623 18.1082V21.5994H35.5906V10.6271L32.623 11.0805V14.0729ZM32.8056 16.1132C32.8056 18.1536 31.7099 19.5138 30.0206 19.5138C28.3314 19.5138 27.2356 18.2442 27.2356 16.1132C27.2356 13.9823 28.2857 12.7127 30.0206 12.7127C30.414 12.7021 30.8045 12.7826 31.1611 12.9479C31.5177 13.1132 31.8306 13.3586 32.0751 13.6649C32.5797 14.3807 32.8361 15.24 32.8056 16.1132ZM44.2194 10.3551C41.8454 10.3551 40.3844 11.7153 40.2474 14.0729V7.40796L37.2798 7.86136V21.5994H40.2474V18.1082C40.3844 20.4659 41.8454 21.8261 44.2194 21.8261C47.0044 21.8261 48.6937 19.6951 48.6937 16.1132C48.6937 12.5314 47.0044 10.3551 44.2194 10.3551ZM42.8954 19.5138C41.2062 19.5138 40.1105 18.1989 40.1105 16.1132C40.08 15.24 40.3364 14.3807 40.8409 13.6649C41.082 13.3548 41.3942 13.1065 41.7517 12.9409C42.1091 12.7752 42.5013 12.697 42.8954 12.7127C44.6303 12.7127 45.6804 13.9823 45.6804 16.1132C45.6804 18.2442 44.6303 19.5138 42.8954 19.5138ZM56.729 10.3551C54.3549 10.3551 52.894 11.7153 52.757 14.0729V7.40796L49.7894 7.86136V21.5994H52.757V18.1082C52.894 20.4659 54.3549 21.8261 56.729 21.8261C59.514 21.8261 61.2032 19.6951 61.2032 16.1132C61.2032 12.5314 59.514 10.3551 56.729 10.3551ZM55.405 19.5138C53.7158 19.5138 52.62 18.1989 52.62 16.1132C52.5896 15.24 52.846 14.3807 53.3505 13.6649C53.5915 13.3548 53.9038 13.1065 54.2613 12.9409C54.6187 12.7752 55.0109 12.697 55.405 12.7127C57.1399 12.7127 58.19 13.9823 58.19 16.1132C58.19 18.2442 57.1399 19.5138 55.405 19.5138ZM61.2032 10.5818H64.3535L66.9102 21.5994H64.0795L61.2032 10.5818ZM75.0825 11.7153V10.8538H74.7172V10.6724H75.676V10.8538H75.3108V11.7153H75.0825ZM75.7216 11.7153V10.6271H76.0869L76.2695 11.1258C76.3152 11.2619 76.3608 11.3072 76.3608 11.3525C76.3608 11.3072 76.4065 11.2619 76.4521 11.1258L76.6348 10.6271H77V11.7153H76.7717V10.8538L76.4521 11.7153H76.2239L75.9499 10.8538V11.7153H75.7216Z" fill="#292929"/>
</g>
<defs>
<clipPath id="clip0_102_7781">
<rect width="62" height="18" fill="white" transform="translate(15 7)"/>
</clipPath>
</defs>
</svg>
